<svg width="250" height="949" fill="none" xmlns="http://www.w3.org/2000/svg"><path opacity=".4" d="M249.723-151h-70.541v2.824H133.94v5.054h-11.608v12.636h-29.02v8.324h-19.05v-4.46h-4.316v30.176H41.521v8.919h-11.31V-90.5H11.608l-4.465 6.095 4.614 7.58H30.36v-3.418H41.52v7.878H21.728v21.554h19.793v5.352h110.277v30.473h39.438v8.027h9.674V8.5H159.091v3.865h-8.781v13.23h8.632v5.5h-4.465v2.675h-5.357l-3.423 5.798 2.678 5.202-2.678 4.46 2.083 4.905h11.608v2.23h42.117v3.121h-21.728v4.163h-46.135v4.905h-10.12v17.838h10.269v18.284h71.434v8.175h-26.043v3.419h-45.54v5.946h-9.822v5.352h-6.846l-2.381 4.608 2.679 5.797h5.208v6.095h11.311v10.851h2.679v4.459h23.067v3.865H40.033v6.392h-5.06v14.568H21.877v8.175H13.84l-3.571 6.69 3.423 6.689h4.91v6.54h17.562v7.284h73.667v14.27h11.905v11.298h-14.287l15.776 26.459V278h41.67v13.23h4.315v7.432h9.079v5.054h-8.632v16.352h31.401v3.864h-41.372v2.825h-25.895v3.121h-18.603l-6.846 5.203h-12.5l-2.382 4.906 2.977 5.351h11.905l7.144 3.716h-12.352v18.73h12.054v2.675h44.051v2.973h19.496v3.865h-19.496v2.081h-25.746v5.054h-9.524v18.284h9.524L133.344 421h12.799l2.084 3.122h11.012v9.365H68.012v4.459H52.236v17.689h15.627v18.433h93.013v5.946H95.99v-1.636h-4.316v6.69H77.685v7.283h-8.632l-3.423 7.433 3.126 6.689h8.78v9.216h14.585v14.27h3.87v6.69h72.327v4.162h-35.122v7.284h-6.4v-2.825h-10.268l-2.828 5.054 2.828 5.649h10.268v-2.824h6.548v6.689H121.29v7.284H70.095v19.324h-16.37v18.432h16.37v2.973h13.543v12.487H98.37v3.121H25.746V635.5H7.292L0 642.932l7.292 7.136h18.603v11.297h4.911v5.351h169.806v26.757h-41.373v3.865H86.168v5.203h-3.72v10.851H66.97v6.392h-8.483l-3.572 4.905 3.572 5.054h10.566v5.649h13.84v7.581h124.714v4.608h-45.391v-1.189h-3.125v4.459h-8.632v13.973h8.632v7.879h-9.079s-4.315.594-4.315 5.5c0 4.905 2.827 5.351 2.827 5.351s-2.679.892-2.679 5.797c0 4.311 4.167 4.608 4.167 4.608h9.227v3.122h2.679v-1.635h65.631v5.649h-65.631v-1.636h-2.679v4.311h-9.078v13.527h8.037v8.325h-9.376s-2.977.892-2.977 5.202c0 3.865 2.977 5.203 2.977 5.203s-3.125.743-3.125 5.054c0 3.419 2.827 4.905 2.827 4.905h10.418v2.23h41.819v3.865H75.601v-1.486h-3.869v6.094H57.148v21.257h14.286V899.5h129.327v9.365h-64.738v-1.487h-2.976v5.203h-10.864v16.203h10.864v7.135h-6.102v-1.933h-10.417l-2.977 4.906 3.423 5.946h10.269v-1.933h6.101V949h115.784V-150.851" fill="url(#paint0_linear)"/><defs><linearGradient id="paint0_linear" x1="0" y1="399" x2="249.723" y2="399" gradientUnits="userSpaceOnUse"><stop stop-color="#434C64"/><stop offset="1" stop-color="#343B4F"/></linearGradient></defs></svg>