<svg width="371" height="423" fill="none" xmlns="http://www.w3.org/2000/svg"><path d="M258.082 0h-99.188c-12.905 7.5-25.857 14.925-38.768 22.42-6.331 3.712-10.942 10.169-12.478 17.344-3.058 13.389 5.383 28.337 18.412 32.648 7.297 2.508 15.655 1.684 22.3-2.253 32.573-18.809 65.146-37.623 97.712-56.444 5.436-3 9.722-7.946 12.01-13.715zm-1.564 54.072c-5.602-.528-11.34.92-16.177 3.765-74.15 42.824-148.3 85.653-222.45 128.483-3.2 1.873-6.579 3.569-9.235 6.22-5.47 5.17-8.636 12.754-8.28 20.291-.03 6.356 2.82 12.351 6.573 17.338 5.436 6.926 14.41 10.863 23.19 10.074 6.466-.195 12.003-3.836 17.41-6.991l215.335-124.379c2.952-1.79 6.1-3.291 8.821-5.437 7.054-5.473 10.972-14.694 10.053-23.558-.432-6.019-3.278-11.61-6.977-16.271-4.517-5.444-11.251-8.847-18.263-9.535zM371 83.459c-23.42 13.596-46.906 27.086-70.338 40.665-6.124 3.534-10.646 9.63-12.401 16.467-3.74 13.774 5.092 29.6 18.714 33.78 7.071 2.295 15.086 1.441 21.523-2.282 14.173-8.189 28.358-16.348 42.502-24.567V83.459zm-137.628 85.137c-5.584-.581-11.334.889-16.165 3.724-58.862 33.994-117.719 67.994-176.575 101.989-9.543 4.631-15.922 15.067-15.246 25.711.237 6.208 2.994 12.06 6.728 16.934 5.282 6.653 13.865 10.531 22.353 9.968 4.393-.095 8.685-1.548 12.46-3.747 59.384-34.303 118.774-68.594 178.152-102.903 6.39-3.557 11.156-9.855 12.869-16.958 3.598-13.852-5.358-29.666-19.123-33.651-1.766-.599-3.61-.818-5.453-1.067zM371 185.863c-88.892 51.321-177.76 102.671-266.647 154.003-3.693 2.058-6.982 4.904-9.353 8.426-5.91 8.409-6.29 20.238-.973 29.026 3.865 7.429 11.287 12.944 19.597 14.183 6.331 1.269 13.012-.35 18.501-3.611C211.746 341.888 291.379 295.91 371 249.909v-64.046zm0 103.537c-4.914 5.164-7.706 12.345-7.261 19.496.059 6.653 3.408 12.713 7.261 17.931V289.4zM341.907 6.013c-6.965-1.05-14.232.658-19.934 4.808-7.481 5.171-11.85 14.463-11.02 23.523.19 5.687 2.934 10.875 6.017 15.512 3.876 5.568 9.994 9.558 16.68 10.733 6.787 1.488 14.043-.261 19.781-4.068 7.036-4.53 11.678-12.6 11.903-20.985.367-5.805-1.541-11.51-4.653-16.354-3.842-6.955-10.961-11.865-18.774-13.17zM56.775 67.692c-6.076-.86-12.437.202-17.706 3.416-8.56 4.732-13.96 14.58-13.249 24.353.083 4.998 2.069 9.742 4.695 13.922 3.906 7.027 11.203 12.008 19.164 13.099 11.387 1.85 23.522-4.845 28.204-15.376 3.012-6.457 3.184-14.165.534-20.771-2.697-6.262-6.776-12.268-12.923-15.571-2.697-1.536-5.678-2.502-8.72-3.072zm223.411 278.187c-5.525-.374-11.139 1.091-15.875 3.967-12.383 7.163-24.784 14.308-37.167 21.471-5.489 3.154-9.81 8.295-11.908 14.272-2.881 7.905-1.69 17.048 2.91 24.069 5.596 9.872 17.825 15.262 28.874 12.713 4.979-.913 9.188-3.849 13.509-6.28 10.771-6.232 21.553-12.434 32.312-18.672 7.404-4.228 12.508-12.215 13.201-20.718.67-6.09-1.013-12.298-4.291-17.445-4.357-7.702-12.751-12.832-21.565-13.377z" fill="#343B4F"/></svg>