<svg width="180" height="958" fill="none" xmlns="http://www.w3.org/2000/svg"><path d="M56.791 822.157c2.516-13.493 9.262-24.584 20.24-33.275 10.976-8.69 23.555-13.035 37.733-13.035 12.807 0 24.127 3.202 33.961 9.605 9.605 6.175 17.152 15.208 22.641 27.1 5.488 11.892 8.233 25.956 8.233 42.194V958h-239.44v-98.795c0-16.237 2.63-30.187 7.89-41.851 5.259-11.892 12.577-20.811 21.954-26.757 9.376-6.174 20.01-9.262 31.902-9.262 13.95 0 25.613 3.774 34.99 11.321 9.376 7.318 16.008 17.152 19.896 29.501zm-17.838 87.818v-43.909c0-11.435-2.516-20.239-7.547-26.414-5.26-6.175-12.692-9.262-22.297-9.262s-17.038 3.087-22.298 9.262c-5.26 6.175-7.89 14.979-7.89 26.414v43.909h60.032zm101.539-48.369c0-11.663-2.744-20.696-8.233-27.1-5.488-6.632-13.264-9.948-23.326-9.948-10.291 0-18.296 3.431-24.013 10.291-5.946 6.861-8.919 16.123-8.919 27.786v47.34h64.491v-48.369zm39.107-247.528l-93.307 52.828v22.64H179.6v48.025H-59.84v-89.876c0-18.524 3.315-34.303 9.947-47.339 6.404-13.035 15.208-22.755 26.414-29.158 10.977-6.632 23.327-9.948 37.048-9.948 15.78 0 30.073 4.574 42.88 13.721 12.578 9.148 21.268 22.755 26.07 40.822l97.081-57.287v55.572zM50.273 689.546v-40.135c0-13.036-3.087-22.755-9.262-29.159-6.403-6.403-15.208-9.605-26.414-9.605-10.977 0-19.438 3.202-25.384 9.605-6.175 6.404-9.262 16.123-9.262 29.159v40.135h70.322zM-59.842 469.787H179.6v48.026H-59.84v-48.026zm239.441-182.606L72.914 374.313h106.685v48.025h-239.44v-48.025h107.37l-107.37-87.132v-57.973l118.69 98.795L179.6 226.464v60.717zm0-227.463L72.914 146.849h106.685v48.026h-239.44v-48.026h107.37L-59.84 59.718V1.744l118.69 98.795L179.6-1v60.718z" opacity=".5" fill="#3F465E"/></svg>